<?xml version="1.0" encoding="UTF-8" standalone="no"?>
<!-- Created with Inkscape (http://www.inkscape.org/) -->

<svg
   xmlns:dc="http://purl.org/dc/elements/1.1/"
   xmlns:cc="http://creativecommons.org/ns#"
   xmlns:rdf="http://www.w3.org/1999/02/22-rdf-syntax-ns#"
   xmlns:svg="http://www.w3.org/2000/svg"
   xmlns="http://www.w3.org/2000/svg"
   xmlns:sodipodi="http://sodipodi.sourceforge.net/DTD/sodipodi-0.dtd"
   xmlns:inkscape="http://www.inkscape.org/namespaces/inkscape"
   width="800"
   height="800"
   id="svg2"
   version="1.1"
   inkscape:version="0.48.4 r9939"
   sodipodi:docname="dessin.svg">
  <defs
     id="defs4" />
  <sodipodi:namedview
     id="base"
     pagecolor="#ffffff"
     bordercolor="#666666"
     borderopacity="1.0"
     inkscape:pageopacity="0.0"
     inkscape:pageshadow="2"
     inkscape:zoom="1.979899"
     inkscape:cx="371.67894"
     inkscape:cy="397.81844"
     inkscape:document-units="px"
     inkscape:current-layer="layer1"
     showgrid="false"
     inkscape:window-width="883"
     inkscape:window-height="667"
     inkscape:window-x="1081"
     inkscape:window-y="297"
     inkscape:window-maximized="0" />
  <metadata
     id="metadata7">
    <rdf:RDF>
      <cc:Work
         rdf:about="">
        <dc:format>image/svg+xml</dc:format>
        <dc:type
           rdf:resource="http://purl.org/dc/dcmitype/StillImage" />
        <dc:title />
      </cc:Work>
    </rdf:RDF>
  </metadata>
  <g
     inkscape:label="Calque 1"
     inkscape:groupmode="layer"
     id="layer1"
     transform="translate(0,-252.36218)">
    <g
       transform="scale(1.0489649,0.95332075)"
       style="font-size:174.86758423px;font-style:normal;font-variant:normal;font-weight:normal;font-stretch:normal;text-align:start;line-height:125%;letter-spacing:0px;word-spacing:0px;writing-mode:lr-tb;text-anchor:start;fill:#000000;fill-opacity:1;stroke:none;font-family:Serif;-inkscape-font-specification:Serif"
       id="text2985">
      <path
         d="m 202.01593,539.63275 0,-9.05076 16.30845,0 0,-108.26763 -37.48382,0 0,19.89461 -10.5023,0 0,-30.05537 113.21993,0 0,30.05537 -10.5023,0 0,-19.89461 -37.48382,0 0,108.26763 16.30845,0 0,9.05076 -49.86459,0"
         style=""
         id="path2990" />
      <path
         d="m 366.55199,495.91586 -67.70996,0 0,0.68307 c -3e-5,12.23849 2.30535,21.48847 6.91615,27.74998 4.61073,6.20463 11.41302,9.30693 20.40691,9.30692 6.88763,10e-6 12.523,-1.79307 16.90614,-5.37923 4.43992,-3.64306 7.54223,-9.02228 9.30692,-16.13768 l 12.63692,0 c -2.50471,9.96155 -7.14393,17.44692 -13.91769,22.45614 -6.71699,5.00923 -15.56851,7.51384 -26.5546,7.51384 -13.2631,0 -23.93616,-4.35461 -32.01921,-13.06383 -8.02616,-8.76613 -12.03923,-20.37842 -12.03922,-34.83691 -1e-5,-14.34454 3.95614,-25.89991 11.86845,-34.66613 7.91228,-8.76606 18.30072,-13.14913 31.16537,-13.14922 13.71839,9e-5 24.24914,4.24085 31.59229,12.7223 7.34298,8.42468 11.15682,20.69158 11.44153,36.80075 m -18.52845,-9.05077 c -0.34162,-10.58762 -2.59007,-18.55684 -6.74538,-23.90768 -4.09853,-5.4076 -10.01852,-8.11144 -17.75999,-8.11153 -7.22927,9e-5 -12.92157,2.70393 -17.07691,8.11153 -4.15542,5.40776 -6.68849,13.37698 -7.59923,23.90768 l 49.18151,0"
         style=""
         id="path2992" />
      <path
         d="m 385.08044,534.59506 0,-21.17537 9.05076,0 c 0.22768,6.77386 2.33383,11.84001 6.31846,15.19845 4.04151,3.35847 9.98996,5.0377 17.84537,5.03769 7.05841,10e-6 12.43763,-1.30922 16.13769,-3.92769 3.69993,-2.67537 5.54993,-6.54613 5.54999,-11.6123 -6e-5,-3.98459 -1.36621,-7.20073 -4.09846,-9.64845 -2.67544,-2.44766 -8.36773,-5.06612 -17.07691,-7.85538 L 407.4512,496.7697 c -7.79849,-2.50457 -13.46232,-5.63533 -16.99153,-9.3923 -3.47232,-3.75687 -5.20847,-8.5384 -5.20846,-14.34461 -1e-5,-8.31069 3.04537,-14.82837 9.13615,-19.55306 6.09074,-4.72452 14.51534,-7.08683 25.27383,-7.08692 4.78148,9e-5 9.81917,0.62625 15.11307,1.87846 5.29377,1.2524 10.75838,3.07393 16.39383,5.46461 l 0,19.80922 -9.05076,0 c -0.22776,-5.863 -2.27699,-10.4453 -6.14769,-13.74691 -3.87082,-3.30146 -9.1362,-4.95222 -15.79614,-4.95231 -6.60312,9e-5 -11.61234,1.16701 -15.02769,3.50077 -3.35848,2.33392 -5.03771,5.83469 -5.03769,10.5023 -2e-5,3.81391 1.28075,6.88775 3.84231,9.22153 2.5615,2.27698 7.68457,4.61083 15.36922,7.00154 l 12.46615,3.8423 c 8.59531,2.67543 14.77145,6.03389 18.52845,10.07538 3.81376,3.98465 5.72068,9.13618 5.72076,15.45461 -8e-5,8.59539 -3.30161,15.36923 -9.90461,20.32152 -6.54621,4.89538 -15.59697,7.34307 -27.15229,7.34307 -5.86311,0 -11.58387,-0.62615 -17.1623,-1.87846 -5.57847,-1.2523 -11.15693,-3.13076 -16.73537,-5.63538"
         style=""
         id="path2994" />
      <path
         d="m 483.95576,458.00511 -13.8323,0 0,-9.13615 13.8323,0 0,-28.1769 15.79614,0 0,28.1769 29.54306,0 0,9.13615 -29.54306,0 0,57.63458 c -3e-5,7.68463 0.73997,12.60846 2.22,14.77153 1.47996,2.16308 4.21226,3.24462 8.19692,3.24461 4.09841,10e-6 7.08687,-1.19537 8.96538,-3.58615 1.8784,-2.44768 2.87455,-6.37536 2.98846,-11.78307 l 11.86845,0 c -0.45545,8.25385 -2.70391,14.28769 -6.74538,18.10153 -4.04159,3.81384 -10.18928,5.72076 -18.44306,5.72076 -9.0508,0 -15.45464,-1.9923 -19.21153,-5.97692 -3.75694,-4.04152 -5.6354,-10.87228 -5.63538,-20.49229 l 0,-57.63458"
         style=""
         id="path2996" />
      <path
         d="m 614.93568,530.75276 c -2e-5,-3.18768 1.08151,-5.89152 3.24461,-8.11154 2.16305,-2.21998 4.86689,-3.32997 8.11154,-3.32999 3.13073,2e-5 5.80611,1.11001 8.02615,3.32999 2.21995,2.22002 3.32995,4.92386 3.32999,8.11154 -4e-5,3.13077 -1.11004,5.80615 -3.32999,8.02615 -2.22004,2.21999 -4.89542,3.32999 -8.02615,3.32999 -3.24465,0 -5.94849,-1.08154 -8.11154,-3.24461 -2.1631,-2.22 -3.24463,-4.92384 -3.24461,-8.11153 m 0.34154,-118.59916 22.02922,0 -5.80615,70.10073 0,21.51691 -10.50231,0 0,-21.51691 -5.72076,-70.10073"
         style=""
         id="path2998" />
    </g>
    <path
       transform="translate(0,252.36218)"
       style="fill:#51bbcc;fill-opacity:1;fill-rule:nonzero;stroke:#4c41b2;stroke-width:2.31999993;stroke-linecap:round;stroke-linejoin:round;stroke-miterlimit:4;stroke-dashoffset:0;stroke-opacity:1"
       d="m 199.4395,389.87808 249.63894,0 c 7.51857,0 13.57143,6.05286 13.57143,13.57143 l 0,106.19728 c 0,7.51857 -6.05286,13.57143 -13.57143,13.57143 l -249.63894,0 c -7.51857,0 -13.57143,-6.05286 -13.57143,-13.57143 l 0,-106.19728 c 0,-7.51857 6.05286,-13.57143 13.57143,-13.57143 z"
       id="rect2988" />
  </g>
</svg>
